<?xml version="1.0" standalone="no"?>
<!DOCTYPE svg PUBLIC "-//W3C//DTD SVG 20010904//EN"
 "http://www.w3.org/TR/2001/REC-SVG-20010904/DTD/svg10.dtd">
<svg version="1.0" xmlns="http://www.w3.org/2000/svg"
 width="24.000000pt" height="24.000000pt" viewBox="0 0 24.000000 24.000000"
 preserveAspectRatio="xMidYMid meet">

<g transform="translate(0.000000,24.000000) scale(0.100000,-0.100000)"
fill="#000000" stroke="none">
<path d="M24 186 c-3 -7 -4 -42 -2 -77 l3 -64 95 0 95 0 0 65 0 65 -45 3 c-25
2 -49 7 -55 13 -14 14 -85 11 -91 -5z m176 -76 l0 -50 -80 0 -80 0 0 50 0 50
80 0 80 0 0 -50z"/>
<path d="M86 131 c-15 -24 20 -56 48 -45 17 7 28 32 20 45 -7 12 -61 12 -68 0z"/>
</g>
</svg>
