<svg width="444" height="56" viewBox="0 0 444 56" fill="none" xmlns="http://www.w3.org/2000/svg">
<rect width="444" height="56" fill="#FFE812"/>
<path d="M125.852 20.36H127.472C127.472 25.58 125.712 30.38 119.232 33.6L118.332 32.32C124.052 29.5 125.852 25.46 125.852 20.54V20.36ZM119.312 20.36H126.832V21.7H119.312V20.36ZM125.592 24.84V26.12L118.672 26.8L118.412 25.32L125.592 24.84ZM130.392 18.46H132.072V36.56H130.392V18.46ZM131.612 25.8H134.952V27.18H131.612V25.8ZM144.25 20.36H145.87C145.87 25.58 144.11 30.38 137.63 33.6L136.73 32.32C142.45 29.5 144.25 25.46 144.25 20.54V20.36ZM137.71 20.36H145.23V21.7H137.71V20.36ZM143.99 24.84V26.12L137.07 26.8L136.81 25.32L143.99 24.84ZM148.79 18.46H150.47V36.56H148.79V18.46ZM150.01 25.8H153.35V27.18H150.01V25.8ZM162.289 28.7H163.949V33.2H162.289V28.7ZM163.129 19.66C166.949 19.66 169.689 21.52 169.689 24.4C169.689 27.28 166.949 29.14 163.129 29.14C159.309 29.14 156.549 27.28 156.549 24.4C156.549 21.52 159.309 19.66 163.129 19.66ZM163.129 20.98C160.249 20.98 158.149 22.34 158.149 24.4C158.149 26.46 160.249 27.82 163.129 27.82C165.989 27.82 168.089 26.46 168.089 24.4C168.089 22.34 165.989 20.98 163.129 20.98ZM154.969 32.88H171.349V34.26H154.969V32.88ZM185.992 23.5H190.012V24.84H185.992V23.5ZM185.852 28.04H189.972V29.38H185.852V28.04ZM192.752 18.48H194.352V36.56H192.752V18.48ZM189.132 18.94H190.692V35.64H189.132V18.94ZM185.092 20.76H186.692C186.692 25.5 184.792 29.76 179.932 32.66L178.972 31.48C183.192 28.92 185.092 25.32 185.092 21.06V20.76ZM179.772 20.76H185.752V22.12H179.772V20.76ZM207.031 23.16H211.111V24.54H207.031V23.16ZM210.591 18.48H212.251V29.26H210.591V18.48ZM206.311 29.8C210.031 29.8 212.331 31.06 212.331 33.18C212.331 35.32 210.031 36.54 206.311 36.54C202.571 36.54 200.271 35.32 200.271 33.18C200.271 31.06 202.571 29.8 206.311 29.8ZM206.311 31.1C203.591 31.1 201.931 31.86 201.931 33.18C201.931 34.48 203.591 35.24 206.311 35.24C209.031 35.24 210.691 34.48 210.691 33.18C210.691 31.86 209.031 31.1 206.311 31.1ZM201.991 20.3H203.351V21.76C203.351 25.1 201.311 27.96 198.311 29.08L197.451 27.76C200.131 26.78 201.991 24.36 201.991 21.76V20.3ZM202.311 20.3H203.651V21.76C203.651 24.1 205.411 26.34 208.031 27.26L207.191 28.58C204.251 27.52 202.311 24.8 202.311 21.76V20.3ZM197.951 19.8H207.611V21.16H197.951V19.8ZM223.949 19.62C227.709 19.62 230.509 21.62 230.509 24.62C230.509 27.64 227.709 29.62 223.949 29.62C220.189 29.62 217.369 27.64 217.369 24.62C217.369 21.62 220.189 19.62 223.949 19.62ZM223.949 20.98C221.089 20.98 218.969 22.44 218.969 24.62C218.969 26.78 221.089 28.26 223.949 28.26C226.809 28.26 228.929 26.78 228.929 24.62C228.929 22.44 226.809 20.98 223.949 20.98ZM215.789 32.78H232.169V34.18H215.789V32.78ZM234.188 32.96H250.568V34.34H234.188V32.96ZM241.508 29.08H243.168V33.54H241.508V29.08ZM236.168 19.82H248.548V25.3H237.868V28.92H236.228V23.96H246.908V21.16H236.168V19.82ZM236.228 28.22H248.968V29.58H236.228V28.22ZM270.431 18.48H272.111V36.56H270.431V18.48ZM271.711 25.58H275.071V27H271.711V25.58ZM258.911 20H260.551V24.78H265.711V20H267.351V32.22H258.911V20ZM260.551 26.1V30.86H265.711V26.1H260.551ZM276.609 32.96H292.989V34.34H276.609V32.96ZM283.929 29.08H285.589V33.54H283.929V29.08ZM278.589 19.82H290.969V25.3H280.289V28.92H278.649V23.96H289.329V21.16H278.589V19.82ZM278.649 28.22H291.389V29.58H278.649V28.22ZM300.633 32.96H317.013V34.34H300.633V32.96ZM307.953 29.08H309.613V33.54H307.953V29.08ZM302.613 19.82H314.993V25.3H304.313V28.92H302.673V23.96H313.353V21.16H302.613V19.82ZM302.673 28.22H315.413V29.58H302.673V28.22ZM320.791 20.4H332.431V21.74H320.791V20.4ZM319.031 32.54H335.371V33.92H319.031V32.54ZM331.551 20.4H333.171V22.2C333.171 24.52 333.171 27.1 332.491 31L330.831 30.84C331.551 27.14 331.551 24.44 331.551 22.2V20.4ZM350.57 18.5H352.25V31.7H350.57V18.5ZM340.63 34.8H352.79V36.16H340.63V34.8ZM340.63 30.34H342.27V35.26H340.63V30.34ZM342.55 19.74C345.25 19.74 347.25 21.58 347.25 24.2C347.25 26.8 345.25 28.66 342.55 28.66C339.85 28.66 337.83 26.8 337.83 24.2C337.83 21.58 339.85 19.74 342.55 19.74ZM342.55 21.18C340.79 21.18 339.45 22.42 339.45 24.2C339.45 25.96 340.79 27.2 342.55 27.2C344.31 27.2 345.65 25.96 345.65 24.2C345.65 22.42 344.31 21.18 342.55 21.18Z" fill="black"/>
<g clip-path="url(#clip0_35_11)">
<path d="M65 44.875C65 46.6009 63.6009 48 61.875 48H28.125C26.3991 48 25 46.6009 25 44.875V11.125C25 9.39906 26.3991 8 28.125 8H61.875C63.6009 8 65 9.39906 65 11.125V44.875Z" fill="#FFE812"/>
<path d="M45 13.625C36.0253 13.625 28.75 19.3614 28.75 26.4375C28.75 31.0123 31.7916 35.0266 36.3669 37.2933C36.118 38.1517 34.7673 42.8158 34.7136 43.1822C34.7136 43.1822 34.6813 43.4575 34.8595 43.5625C35.0378 43.6675 35.2475 43.5859 35.2475 43.5859C35.7587 43.5145 41.1761 39.7092 42.1137 39.0484C43.0505 39.1811 44.015 39.25 45 39.25C53.9747 39.25 61.25 33.5137 61.25 26.4375C61.25 19.3614 53.9747 13.625 45 13.625Z" fill="black"/>
<path d="M36.0156 30.9102C35.4986 30.9102 35.0781 30.5086 35.0781 30.0148V24.4453H33.6153C33.108 24.4453 32.6953 24.0334 32.6953 23.5273C32.6953 23.0212 33.1081 22.6094 33.6153 22.6094H38.4159C38.9233 22.6094 39.3359 23.0212 39.3359 23.5273C39.3359 24.0334 38.9231 24.4453 38.4159 24.4453H36.9531V30.0148C36.9531 30.5086 36.5327 30.9102 36.0156 30.9102ZM44.2362 30.898C43.8453 30.898 43.5463 30.7392 43.4561 30.4839L42.9919 29.2686L40.1331 29.2684L39.6686 30.4845C39.5787 30.7394 39.2798 30.898 38.8889 30.898C38.6833 30.8982 38.48 30.8541 38.293 30.7686C38.0345 30.6494 37.7861 30.3216 38.0708 29.4373L40.3133 23.5348C40.4712 23.0859 40.9511 22.6234 41.5617 22.6095C42.1741 22.6233 42.6539 23.0859 42.8122 23.5358L45.0537 29.4356C45.3391 30.3219 45.0906 30.6498 44.8322 30.7688C44.6451 30.8541 44.4419 30.8981 44.2362 30.898ZM42.4989 27.608L41.5625 24.9478L40.6261 27.608H42.4989ZM46.5625 30.7734C46.067 30.7734 45.6641 30.3878 45.6641 29.9141V23.5469C45.6641 23.0298 46.0934 22.6094 46.6211 22.6094C47.1488 22.6094 47.5781 23.0298 47.5781 23.5469V29.0547H49.5703C50.0658 29.0547 50.4688 29.4403 50.4688 29.9141C50.4688 30.3878 50.0658 30.7734 49.5703 30.7734H46.5625ZM51.7709 30.898C51.2539 30.898 50.8334 30.4775 50.8334 29.9605V23.5469C50.8334 23.0298 51.2539 22.6094 51.7709 22.6094C52.288 22.6094 52.7084 23.0298 52.7084 23.5469V25.5619L55.3241 22.9462C55.4586 22.8117 55.6434 22.7377 55.8441 22.7377C56.0781 22.7377 56.3131 22.8386 56.4892 23.0145C56.6534 23.1786 56.7514 23.3897 56.7648 23.6089C56.7784 23.83 56.7048 24.0327 56.558 24.1797L54.4216 26.3158L56.7292 29.373C56.8037 29.471 56.858 29.5829 56.8889 29.7022C56.9198 29.8214 56.9267 29.9456 56.9092 30.0675C56.8925 30.1895 56.8517 30.307 56.7893 30.4131C56.7269 30.5192 56.644 30.6119 56.5455 30.6858C56.3833 30.809 56.1852 30.8755 55.9816 30.875C55.8363 30.8757 55.6929 30.8423 55.5629 30.7776C55.4328 30.7129 55.3197 30.6186 55.2327 30.5023L53.0341 27.5892L52.7087 27.9145V29.96C52.7085 30.2086 52.6096 30.447 52.4338 30.6229C52.258 30.7987 52.0196 30.8976 51.7709 30.898Z" fill="#FFE812"/>
</g>
<defs>
<clipPath id="clip0_35_11">
<rect width="40" height="40" fill="white" transform="translate(25 8)"/>
</clipPath>
</defs>
</svg>
